<svg width="64" height="20" viewBox="0 0 64 20" fill="none" xmlns="http://www.w3.org/2000/svg">
<path d="M34.6719 5.04688V6.12695H30.3652V12.1016C32.416 12.0947 33.8311 12.0195 35.4375 11.7051L35.5879 12.7715C33.8242 13.0996 32.334 13.1816 30.0234 13.1816H29.0527V5.04688H34.6719ZM38.6777 3.91211V16.1895H37.3789V9.36719H33.9746V8.28711H37.3789V3.91211H38.6777ZM51.4817 13.5645V14.6445H40.2708V13.5645H45.2063V11.0488H41.5559V4.74609H42.8548V6.85156H48.8704V4.74609H50.1555V11.0488H46.4915V13.5645H51.4817ZM42.8548 9.99609H48.8704V7.9043H42.8548V9.99609ZM62.2759 3.91211V16.1621H60.9634V3.91211H62.2759ZM58.6255 5.22461C58.6255 8.80664 57.0943 11.9238 52.897 13.9336L52.2134 12.8809C55.4742 11.3291 57.0601 9.12109 57.313 6.26367H52.8013V5.22461H58.6255Z" fill="#818181"/>
<path d="M10 0C15.5228 0 20 4.47715 20 10C20 15.5228 15.5228 20 10 20C4.47715 20 0 15.5228 0 10C0 4.47715 4.47715 0 10 0ZM10 5C9.44771 5 9 5.44772 9 6V8.99512H6.00488C5.4526 8.99512 5.00488 9.44283 5.00488 9.99512C5.00495 10.5473 5.45264 10.9951 6.00488 10.9951H9V14C9 14.5523 9.44771 15 10 15C10.5523 15 11 14.5523 11 14V10.9951H14.0049C14.5571 10.9951 15.0048 10.5473 15.0049 9.99512C15.0049 9.44283 14.5572 8.99512 14.0049 8.99512H11V6C11 5.44772 10.5523 5 10 5Z" fill="#D9D9D9"/>
</svg>
