<svg width="29" height="29" viewBox="0 0 29 29" fill="none" xmlns="http://www.w3.org/2000/svg">
<path d="M21.2759 25.375H8.69971C7.34655 25.375 6.66973 25.3747 6.15283 25.1113C5.69831 24.8797 5.32883 24.5102 5.09717 24.0557C4.8338 23.5388 4.8335 22.8619 4.8335 21.5088V10.6602L18.2876 9.43652L21.2759 25.375ZM26.5835 21.5088C26.5835 22.8619 26.5832 23.5388 26.3198 24.0557C26.0882 24.5102 25.7187 24.8797 25.2642 25.1113C24.8966 25.2986 24.448 25.3516 23.7329 25.3672L20.7046 9.2168L26.5835 8.68164V21.5088ZM12.0835 13.8965C9.90367 13.8967 7.854 15.6025 7.854 18.1611C7.8544 20.7686 10.4389 22.6011 11.5669 23.2764C11.8864 23.4676 12.2796 23.4674 12.5991 23.2764C13.727 22.6012 16.3116 20.7687 16.312 18.1611C16.312 15.6025 14.3389 13.8967 12.0835 13.8965ZM22.7173 3.625C24.0704 3.625 24.7473 3.6253 25.2642 3.88867C25.7187 4.12033 26.0882 4.48981 26.3198 4.94434C26.4873 5.27294 26.5476 5.66633 26.5698 6.25684L4.8335 8.23242V7.49121C4.8335 6.13805 4.8338 5.46123 5.09717 4.94434C5.32883 4.48982 5.69831 4.12033 6.15283 3.88867C6.66973 3.6253 7.34655 3.625 8.69971 3.625H22.7173Z" fill="currentColor"/>
<circle cx="12.0833" cy="18.125" r="1.20833" fill="currentColor"/>
</svg>
