<svg width="40" height="20" viewBox="0 0 40 20" fill="none" xmlns="http://www.w3.org/2000/svg">
<rect width="40" height="20" rx="10" fill="#0169FE"/>
<path d="M15.7109 5.51562V14H14.5273L10.2266 7.80078H10.1562V14H8.86719V5.51562H10.0625L14.3633 11.7266H14.4453V5.51562H15.7109ZM19.7952 14.1289C17.9905 14.1289 16.8186 12.8164 16.8186 10.8477C16.8186 8.86719 17.9905 7.55469 19.7952 7.55469C21.5881 7.55469 22.76 8.86719 22.76 10.8477C22.76 12.8164 21.5881 14.1289 19.7952 14.1289ZM19.7952 13.0859C20.9436 13.0859 21.4944 12.0664 21.4944 10.8477C21.4944 9.62891 20.9436 8.58594 19.7952 8.58594C18.6233 8.58594 18.0725 9.62891 18.0725 10.8477C18.0725 12.0664 18.6233 13.0859 19.7952 13.0859ZM24.9223 14L23.0591 7.63672H24.3481L25.5903 12.3008H25.6606L26.9028 7.63672H28.1919L29.4223 12.2773H29.4927L30.7231 7.63672H32.0122L30.1489 14H28.8716L27.5825 9.41797H27.4888L26.2114 14H24.9223Z" fill="white"/>
</svg>
